<svg width="92" height="92" viewBox="0 0 92 92" fill="none" xmlns="http://www.w3.org/2000/svg">
<path d="M63.2932 83.375H63.2774C62.4839 83.375 61.8485 84.0176 61.8485 84.8125C61.8485 85.6074 62.4983 86.25 63.2932 86.25C64.0867 86.25 64.7307 85.6074 64.7307 84.8125C64.7307 84.0176 64.0867 83.375 63.2932 83.375Z" fill="black"/>
<path d="M69.0432 83.375H69.0274C68.2339 83.375 67.5985 84.0176 67.5985 84.8125C67.5985 85.6074 68.2483 86.25 69.0432 86.25C69.8367 86.25 70.4807 85.6074 70.4807 84.8125C70.4807 84.0176 69.8367 83.375 69.0432 83.375Z" fill="black"/>
<path d="M74.7931 83.375H74.7773C73.9838 83.375 73.3484 84.0176 73.3484 84.8125C73.3484 85.6074 73.9982 86.25 74.7931 86.25C75.5866 86.25 76.2306 85.6074 76.2306 84.8125C76.2306 84.0176 75.5866 83.375 74.7931 83.375Z" fill="black"/>
<path d="M17.2932 83.375H17.2774C16.4839 83.375 15.8485 84.0176 15.8485 84.8125C15.8485 85.6074 16.4983 86.25 17.2932 86.25C18.0867 86.25 18.7307 85.6074 18.7307 84.8125C18.7307 84.0176 18.0867 83.375 17.2932 83.375Z" fill="black"/>
<path d="M23.0431 83.375H23.0273C22.2338 83.375 21.5984 84.0176 21.5984 84.8125C21.5984 85.6074 22.2482 86.25 23.0431 86.25C23.8366 86.25 24.4806 85.6074 24.4806 84.8125C24.4806 84.0176 23.8366 83.375 23.0431 83.375Z" fill="black"/>
<path d="M28.7931 83.375H28.7773C27.9838 83.375 27.3484 84.0176 27.3484 84.8125C27.3484 85.6074 27.9982 86.25 28.7931 86.25C29.5866 86.25 30.2306 85.6074 30.2306 84.8125C30.2306 84.0176 29.5866 83.375 28.7931 83.375Z" fill="black"/>
<path d="M81.9375 0H10.0625C4.51519 0 0 4.51519 0 10.0625V81.9375C0 87.4848 4.51519 92 10.0625 92H81.9375C87.4848 92 92 87.4848 92 81.9375V10.0625C92 4.51519 87.4848 0 81.9375 0ZM89.125 81.9375C89.125 85.9007 85.9007 89.125 81.9375 89.125H10.0625C6.09931 89.125 2.875 85.9007 2.875 81.9375V10.0625C2.875 6.09931 6.09931 2.875 10.0625 2.875H81.9375C85.9007 2.875 89.125 6.09931 89.125 10.0625V81.9375Z" fill="black"/>
<path d="M80.5 71.875H11.5C10.7051 71.875 10.0625 72.5176 10.0625 73.3125C10.0625 74.1074 10.7051 74.75 11.5 74.75H80.5C81.2949 74.75 81.9375 74.1074 81.9375 73.3125C81.9375 72.5176 81.2949 71.875 80.5 71.875Z" fill="black"/>
<path d="M54.625 46H27.3125C26.5176 46 25.875 46.6426 25.875 47.4375V73.3125C25.875 74.1074 26.5176 74.75 27.3125 74.75C28.1074 74.75 28.75 74.1074 28.75 73.3125V48.875H53.1875V73.3125C53.1875 74.1074 53.8301 74.75 54.625 74.75C55.4199 74.75 56.0625 74.1074 56.0625 73.3125V47.4375C56.0625 46.6426 55.4199 46 54.625 46Z" fill="black"/>
<path d="M64.6875 46H35.9375C35.1426 46 34.5 46.6426 34.5 47.4375C34.5 48.2324 35.1426 48.875 35.9375 48.875H63.25V73.3125C63.25 74.1074 63.8926 74.75 64.6875 74.75C65.4824 74.75 66.125 74.1074 66.125 73.3125V47.4375C66.125 46.6426 65.4824 46 64.6875 46Z" fill="black"/>
<path d="M40.25 18.6875H11.5C10.7051 18.6875 10.0625 19.3301 10.0625 20.125C10.0625 20.9199 10.7051 21.5625 11.5 21.5625H40.25C41.0449 21.5625 41.6875 20.9199 41.6875 20.125C41.6875 19.3301 41.0449 18.6875 40.25 18.6875Z" fill="black"/>
<path d="M40.25 27.3125H11.5C10.7051 27.3125 10.0625 27.9551 10.0625 28.75C10.0625 29.5449 10.7051 30.1875 11.5 30.1875H40.25C41.0449 30.1875 41.6875 29.5449 41.6875 28.75C41.6875 27.9551 41.0449 27.3125 40.25 27.3125Z" fill="black"/>
<path d="M80.5 18.6875H51.75C50.9551 18.6875 50.3125 19.3301 50.3125 20.125C50.3125 20.9199 50.9551 21.5625 51.75 21.5625H80.5C81.2949 21.5625 81.9375 20.9199 81.9375 20.125C81.9375 19.3301 81.2949 18.6875 80.5 18.6875Z" fill="black"/>
<path d="M80.5 27.3125H51.75C50.9551 27.3125 50.3125 27.9551 50.3125 28.75C50.3125 29.5449 50.9551 30.1875 51.75 30.1875H80.5C81.2949 30.1875 81.9375 29.5449 81.9375 28.75C81.9375 27.9551 81.2949 27.3125 80.5 27.3125Z" fill="black"/>
<path d="M51.75 14.375H40.25C39.4551 14.375 38.8125 15.0176 38.8125 15.8125V33.0625C38.8125 33.8574 39.4551 34.5 40.25 34.5H51.75C52.5449 34.5 53.1875 33.8574 53.1875 33.0625V15.8125C53.1875 15.0176 52.5449 14.375 51.75 14.375ZM50.3125 31.625H41.6875V17.25H50.3125V31.625Z" fill="black"/>
<path d="M43.125 31.625C42.3301 31.625 41.6875 32.2676 41.6875 33.0625V38.8125C41.6875 39.6074 42.3301 40.25 43.125 40.25C43.9199 40.25 44.5625 39.6074 44.5625 38.8125V33.0625C44.5625 32.2676 43.9199 31.625 43.125 31.625Z" fill="black"/>
<path d="M48.875 37.375H43.125C42.3301 37.375 41.6875 38.0176 41.6875 38.8125C41.6875 39.6074 42.3301 40.25 43.125 40.25H48.875C49.6699 40.25 50.3125 39.6074 50.3125 38.8125C50.3125 38.0176 49.6699 37.375 48.875 37.375Z" fill="black"/>
<path d="M48.875 31.625C48.0801 31.625 47.4375 32.2676 47.4375 33.0625V38.8125C47.4375 39.6074 48.0801 40.25 48.875 40.25C49.6699 40.25 50.3125 39.6074 50.3125 38.8125V33.0625C50.3125 32.2676 49.6699 31.625 48.875 31.625Z" fill="black"/>
<path d="M46 37.375C45.2051 37.375 44.5625 38.0176 44.5625 38.8125V41.6875C44.5625 42.4824 45.2051 43.125 46 43.125C46.7949 43.125 47.4375 42.4824 47.4375 41.6875V38.8125C47.4375 38.0176 46.7949 37.375 46 37.375Z" fill="black"/>
<path d="M80.5 10.0625H11.5C10.7051 10.0625 10.0625 10.7051 10.0625 11.5V79.0625C10.0625 79.8574 10.7051 80.5 11.5 80.5H80.5C81.2949 80.5 81.9375 79.8574 81.9375 79.0625V11.5C81.9375 10.7051 81.2949 10.0625 80.5 10.0625ZM79.0625 77.625H12.9375V12.9375H79.0625V77.625Z" fill="black"/>
<path d="M56.0625 83.375H35.9375C35.1426 83.375 34.5 84.0176 34.5 84.8125C34.5 85.6074 35.1426 86.25 35.9375 86.25H56.0625C56.8574 86.25 57.5 85.6074 57.5 84.8125C57.5 84.0176 56.8574 83.375 56.0625 83.375Z" fill="black"/>
</svg>
