<svg width="92" height="92" viewBox="0 0 92 92" fill="none" xmlns="http://www.w3.org/2000/svg">
<path d="M88.4755 28.4061C83.7761 17.0604 74.9396 8.22412 63.5939 3.52439C52.2485 -1.1748 39.7521 -1.1748 28.4061 3.52439C17.0606 8.22394 8.22408 17.0604 3.52453 28.4059C-1.17484 39.7514 -1.17484 52.2481 3.52453 63.5938C8.2239 74.9393 17.0604 83.7758 28.4061 88.4755C34.0788 90.8251 40.0394 92.0001 46 92.0001C51.9604 92.0001 57.921 90.8251 63.5938 88.4755C74.9392 83.7761 83.7757 74.9396 88.4755 63.594C93.1749 52.2483 93.1749 39.7518 88.4755 28.4061ZM83.4965 61.5317C79.3479 71.5473 71.5471 79.3479 61.5315 83.4965C51.5159 87.6454 40.4839 87.6454 30.4682 83.4965C20.4525 79.3479 12.6519 71.5471 8.50332 61.5315C4.35469 51.5159 4.35469 40.484 8.50332 30.4682C12.6519 20.4524 20.4527 12.652 30.4683 8.50336C35.4762 6.42905 40.738 5.39189 45.9998 5.39189C51.2616 5.39189 56.5238 6.42905 61.5315 8.50336C71.5471 12.652 79.3477 20.4528 83.4963 30.4684C87.645 40.484 87.6451 51.5161 83.4965 61.5317Z" fill="black"/>
<path d="M56.2851 45.9999C56.2851 45.5564 56.2537 45.1205 56.1991 44.6918L79.5513 35.0188L78.52 32.5294C74.9274 23.8559 68.16 17.0953 59.4642 13.4937L56.9748 12.4624L47.3078 35.8006C46.879 35.746 46.4431 35.7146 45.9998 35.7146C45.5564 35.7146 45.1204 35.746 44.6917 35.8006L35.0187 12.4484L32.5294 13.4797C23.8558 17.0725 17.0954 23.8401 13.4934 32.5357L12.4622 35.0251L35.8006 44.6921C35.7459 45.1208 35.7145 45.5568 35.7145 46.0001C35.7145 46.4434 35.7459 46.8793 35.8006 47.308L12.4482 56.981L13.4794 59.4703C17.0723 68.1442 23.84 74.9046 32.5355 78.5063L35.0249 79.5375L44.6917 56.1991C45.1204 56.2538 45.5564 56.2852 45.9998 56.2852C46.4433 56.2852 46.8792 56.2538 47.3079 56.1991L56.9809 79.5515L59.4703 78.5203C68.1438 74.9274 74.9042 68.1599 78.5062 59.4642L79.5374 56.9748L56.1991 47.3078C56.2537 46.8791 56.2851 46.4432 56.2851 45.9999ZM59.8458 19.6135C65.2399 22.4292 69.5865 26.7695 72.3993 32.1483L69.6988 33.2669C67.201 28.6417 63.3578 24.7987 58.7327 22.3009L59.8458 19.6135ZM56.6571 27.3118C59.9869 29.2214 62.7781 32.0126 64.6879 35.3424L61.9642 36.4707C60.3844 33.8388 58.1609 31.6152 55.529 30.0354L56.6571 27.3118ZM53.4344 35.0923C54.7941 36.024 55.9757 37.2054 56.9074 38.5653L54.1327 39.7146C53.5972 39.0235 52.9762 38.4025 52.2851 37.867L53.4344 35.0923ZM22.3008 33.267L19.6132 32.1539C22.4291 26.7598 26.7695 22.4132 32.1482 19.6002L33.267 22.3009C28.6418 24.7987 24.7987 28.6419 22.3008 33.267ZM30.0353 36.4709L27.3118 35.3428C29.2213 32.013 32.0128 29.2217 35.3425 27.312L36.4708 30.0355C33.8386 31.6153 31.6149 33.839 30.0353 36.4709ZM32.1536 72.3867C26.7599 69.5709 22.4131 65.2306 19.6001 59.8516L22.3008 58.7329C24.7987 63.3581 28.6416 67.2011 33.2668 69.6989L32.1536 72.3867ZM35.3425 64.6879C32.0128 62.7784 29.2215 59.9869 27.3119 56.6573L30.0357 55.5291C31.6151 58.1611 33.8387 60.3848 36.4706 61.9644L35.3425 64.6879ZM38.5652 56.9075C37.2055 55.9758 36.0241 54.7943 35.0922 53.4345L37.867 52.2852C38.4024 52.9763 39.0234 53.5973 39.7145 54.1327L38.5652 56.9075ZM37.867 39.7149L35.0922 38.5655C36.0239 37.2058 37.2054 36.0242 38.5652 35.0925L39.7145 37.8672C39.0233 38.4027 38.4023 39.0237 37.867 39.7149ZM45.9998 50.8962C43.3 50.8962 41.1035 48.6997 41.1035 46.0001C41.1035 43.3003 43.3 41.1038 45.9998 41.1038C48.6996 41.1038 50.8961 43.3003 50.8961 46.0001C50.8961 48.6999 48.6996 50.8962 45.9998 50.8962ZM69.6988 58.7329L72.3864 59.8461C69.5705 65.2401 65.2302 69.5868 59.8514 72.3998L58.7327 69.6991C63.3578 67.2012 67.201 63.3581 69.6988 58.7329ZM61.9643 55.5291L64.6879 56.6572C62.7783 59.9869 59.9871 62.7782 56.6571 64.6879L55.5288 61.9642C58.1611 60.3846 60.3847 58.161 61.9643 55.5291ZM56.9074 53.4345C55.9757 54.7942 54.7943 55.9758 53.4344 56.9075L52.2851 54.1327C52.9764 53.5973 53.5974 52.9763 54.1327 52.285L56.9074 53.4345Z" fill="black"/>
</svg>
